<svg width="24" height="24" viewBox="0 0 24 24" fill="none" xmlns="http://www.w3.org/2000/svg">
<path d="M0.5 12C0.5 5.67614 5.67614 0.5 12 0.5C18.3239 0.5 23.5 5.67614 23.5 12C23.5 18.3239 18.3239 23.5 12 23.5C5.67614 23.5 0.5 18.3239 0.5 12Z" stroke="#C5CBE0" stroke-linecap="square"/>
<path fill-rule="evenodd" clip-rule="evenodd" d="M12 0C5.4 0 0 5.4 0 12C0 18.6 5.4 24 12 24C18.6 24 24 18.6 24 12C24 5.4 18.6 0 12 0Z" fill="#389E0D"/>
<path fill-rule="evenodd" clip-rule="evenodd" d="M17.1811 7.11293C17.5605 7.434 17.6078 8.00188 17.2868 8.38133L10.6868 16.1813C10.5213 16.3769 10.2803 16.4927 10.0243 16.4996C9.7682 16.5066 9.52129 16.4042 9.3454 16.2179L5.9454 12.6179C5.60411 12.2566 5.62038 11.687 5.98175 11.3457C6.34311 11.0044 6.91273 11.0207 7.25402 11.382L9.96287 14.2502L15.9127 7.21863C16.2337 6.83919 16.8016 6.79187 17.1811 7.11293Z" fill="white"/>
</svg>
