<svg width="32" height="32" viewBox="0 0 32 32" fill="none" xmlns="http://www.w3.org/2000/svg">
<path d="M28.8186 7.21626L16.9561 1.28501C16.6589 1.13763 16.3316 1.06094 15.9998 1.06094C15.6681 1.06094 15.3408 1.13763 15.0436 1.28501L3.18108 7.21626C2.76249 7.42696 2.42442 7.76895 2.21855 8.18994C2.01268 8.61093 1.95035 9.08775 2.04107 9.54751L3.70233 17.8513C4.38519 21.2687 6.31885 24.3082 9.12483 26.375L14.7348 30.5188C15.1018 30.7923 15.5472 30.94 16.0048 30.94C16.4625 30.94 16.9079 30.7923 17.2748 30.5188L17.9836 29.995C17.5121 29.522 17.098 28.995 16.7498 28.425L16.0873 28.9138C16.0639 28.9314 16.0354 28.941 16.0061 28.941C15.9768 28.941 15.9482 28.9314 15.9248 28.9138L10.3148 24.77C9.86509 24.4375 9.43867 24.0746 9.03858 23.6838C9.21351 22.6322 9.62406 21.6338 10.2395 20.7634C10.8549 19.893 11.6593 19.1731 12.5923 18.6575L13.9998 17.875C14.7608 18.2071 15.5926 18.3445 16.4199 18.2748C17.2473 18.205 18.0443 17.9303 18.7389 17.4754C19.4336 17.0206 20.004 16.3999 20.3987 15.6694C20.7934 14.9389 21 14.1216 20.9998 13.2913V11.7088C20.9998 10.3827 20.473 9.11091 19.5354 8.17323C18.5977 7.23555 17.3259 6.70876 15.9998 6.70876C14.6737 6.70876 13.402 7.23555 12.4643 8.17323C11.5266 9.11091 10.9998 10.3827 10.9998 11.7088V13.2913C10.9993 14.4971 11.4363 15.6621 12.2298 16.57L11.6248 16.9063C9.69125 17.9746 8.21421 19.7122 7.47107 21.7925C6.59098 20.481 5.97844 19.0087 5.66858 17.46L3.99983 9.15501C3.99435 9.12541 3.99857 9.09482 4.01186 9.0678C4.02514 9.04078 4.04679 9.01876 4.07358 9.00501L15.9361 3.07376C15.9556 3.06435 15.9769 3.05947 15.9986 3.05947C16.0202 3.05947 16.0416 3.06435 16.0611 3.07376L27.9236 9.00001C27.9504 9.01376 27.972 9.03578 27.9853 9.0628C27.9986 9.08982 28.0028 9.1204 27.9973 9.15001L26.6436 15.915C27.2988 16.1291 27.9252 16.4229 28.5086 16.79L29.9586 9.54001C30.0475 9.08138 29.9843 8.60624 29.7786 8.18681C29.5728 7.76739 29.2357 7.4266 28.8186 7.21626ZM12.9998 11.7088C12.9998 10.9131 13.3159 10.1501 13.8785 9.58744C14.4411 9.02483 15.2042 8.70876 15.9998 8.70876C16.7955 8.70876 17.5585 9.02483 18.1211 9.58744C18.6838 10.1501 18.9998 10.9131 18.9998 11.7088V13.2913C18.9998 14.0869 18.6838 14.85 18.1211 15.4126C17.5585 15.9752 16.7955 16.2913 15.9998 16.2913C15.2042 16.2913 14.4411 15.9752 13.8785 15.4126C13.3159 14.85 12.9998 14.0869 12.9998 13.2913V11.7088Z" fill="url(#paint0_linear_12_156245)"/>
<path d="M28.95 19.05C27.971 18.0711 26.7237 17.4045 25.3659 17.1345C24.008 16.8644 22.6006 17.0031 21.3215 17.5329C20.0425 18.0627 18.9493 18.96 18.1802 20.1111C17.411 21.2622 17.0005 22.6156 17.0005 24C17.0005 25.3844 17.411 26.7378 18.1802 27.8889C18.9493 29.04 20.0425 29.9373 21.3215 30.4671C22.6006 30.9969 24.008 31.1356 25.3659 30.8656C26.7237 30.5955 27.971 29.9289 28.95 28.95C29.6001 28.3 30.1157 27.5283 30.4676 26.679C30.8194 25.8296 31.0005 24.9193 31.0005 24C31.0005 23.0807 30.8194 22.1704 30.4676 21.3211C30.1157 20.4717 29.6001 19.7 28.95 19.05ZM28 25H25V28H23V25H20V23H23V20H25V23H28V25Z" fill="url(#paint1_linear_12_156245)"/>
<defs>
<linearGradient id="paint0_linear_12_156245" x1="2.00049" y1="1.06094" x2="18.7117" y2="36.2932" gradientUnits="userSpaceOnUse">
<stop offset="0.272135" stop-color="#34263B"/>
<stop offset="0.658079" stop-color="#13172C"/>
</linearGradient>
<linearGradient id="paint1_linear_12_156245" x1="17.3667" y1="18.0988" x2="28.9017" y2="29.6338" gradientUnits="userSpaceOnUse">
<stop offset="0.35" stop-color="#F7052D"/>
<stop offset="0.85" stop-color="#CA5AFA"/>
</linearGradient>
</defs>
</svg>
