<svg width="14" height="16" viewBox="0 0 14 16" fill="none" xmlns="http://www.w3.org/2000/svg">
<path d="M10.1254 3.62561V4.87681C10.1254 5.70577 9.79608 6.50078 9.20992 7.08694C8.62375 7.6731 7.82874 8.0024 6.99978 8.0024C6.58932 8.0024 6.18289 7.92156 5.80367 7.76448C5.42446 7.60741 5.07989 7.37718 4.78965 7.08694C4.49941 6.7967 4.26918 6.45214 4.11211 6.07292C3.95503 5.69371 3.87419 5.28727 3.87419 4.87681V3.62561C3.87482 2.79685 4.20432 2.00221 4.79035 1.41618C5.37637 0.830154 6.17102 0.500648 6.99978 0.500015C7.82855 0.500648 8.62319 0.830154 9.20922 1.41618C9.79524 2.00221 10.1247 2.79685 10.1254 3.62561ZM13.251 12.3768V15.5024H0.750977V12.3768C0.750742 11.3844 0.987429 10.4062 1.44136 9.52371C1.89529 8.64118 2.55335 7.87977 3.36081 7.30279C3.7603 7.90182 4.30142 8.39305 4.93618 8.73292C5.57095 9.0728 6.27976 9.25082 6.99978 9.25121C7.71981 9.25082 8.42862 9.0728 9.06339 8.73292C9.69815 8.39305 10.2393 7.90182 10.6388 7.30279C11.4465 7.87965 12.1049 8.64098 12.5593 9.52349C13.0136 10.406 13.2507 11.3842 13.251 12.3768ZM11.9998 11.7512H10.751V10.5024H9.49978V11.7512H8.25098V13.0024H9.49978V14.2512H10.751V13.0024H11.9998V11.7512Z" fill="#03050F"/>
</svg>
